<?xml version="1.0" encoding="utf-8"?>
<!-- Generator: Adobe Illustrator 25.1.0, SVG Export Plug-In . SVG Version: 6.00 Build 0)  -->
<svg version="1.1" id="Layer_1" xmlns="http://www.w3.org/2000/svg" xmlns:xlink="http://www.w3.org/1999/xlink" x="0px" y="0px"
	 viewBox="0 0 32 32" style="enable-background:new 0 0 32 32;" xml:space="preserve">
<style type="text/css">
	.st0{fill-rule:evenodd;clip-rule:evenodd;}
	.st1{fill:#FFFFFF;}
</style>
<rect x="1.2" y="1.6" class="st0" width="29.7" height="28.8"/>
<path class="st1" d="M10.5,12.8v12.8h-4V12.8H10.5L10.5,12.8z M17,14.5v-1.7h-3.7v12.8h4.1v-7c0-1.9,1.4-2.7,2.4-2.7
	c1.6,0,2.2,1.2,2.2,2.8v6.8h3.9v-7.8c0-3.6-2.2-5.2-4.8-5.2C19,12.5,17.6,13.6,17,14.5L17,14.5z M8.5,6.4c1.3,0,2.3,1,2.3,2.2
	s-1,2.2-2.3,2.2s-2.3-1-2.3-2.2S7.3,6.4,8.5,6.4z"/>
</svg>
