<?xml version="1.0" encoding="utf-8"?>
<!-- Generator: Adobe Illustrator 27.9.0, SVG Export Plug-In . SVG Version: 6.00 Build 0)  -->
<svg version="1.0" xmlns="http://www.w3.org/2000/svg" xmlns:xlink="http://www.w3.org/1999/xlink" x="0px" y="0px"
	 viewBox="0 0 64 64" style="enable-background:new 0 0 64 64;" xml:space="preserve">
<style type="text/css">
	.st0{display:none;}
	.st1{display:inline;}
	.st2{fill:none;stroke:#000000;stroke-width:0.5;stroke-miterlimit:10;}
	.st3{fill:none;stroke:#000000;stroke-width:0.75;stroke-miterlimit:10;}
</style>
<g id="Layer_2" class="st0">
	<rect x="-1.8" y="-2.7" class="st1" width="69.5" height="70.3"/>
</g>
<g id="Layer_1">
	<g>
		
			<image style="overflow:visible;" width="522" height="495" xlink:href="1358D4EC.png"  transform="matrix(0.24 0 0 0.24 -31.44 -29.52)">
		</image>
	</g>
	<g>
		
			<image style="overflow:visible;" width="522" height="496" xlink:href="1358D4EF.png"  transform="matrix(0.24 0 0 0.24 -31.44 -29.6)">
		</image>
	</g>
	<polygon class="st2" points="60,13.1 60,59.4 51.8,59.4 51.8,24.4 33.5,42.8 15.3,24.6 15.3,59.4 7.1,59.4 7.1,12.8 15.2,12.8 
		15.3,12.9 33.5,31.1 52.3,12.9 	"/>
	<polygon class="st3" points="57.7,6.9 57.7,53.2 49.4,53.2 49.4,18.3 31.2,36.6 13,18.4 13,53.2 4.8,53.2 4.8,6.6 12.9,6.6 13,6.7 
		31.2,24.9 50,6.7 	"/>
	<line class="st2" x1="4.8" y1="6.6" x2="7.1" y2="12.8"/>
	<line class="st2" x1="13" y1="18.4" x2="15.3" y2="24.6"/>
	<line class="st2" x1="13" y1="53.2" x2="15.3" y2="59.4"/>
	<line class="st2" x1="4.7" y1="53.2" x2="7.1" y2="59.4"/>
	<line class="st2" x1="31.2" y1="36.6" x2="33.5" y2="42.8"/>
	<line class="st2" x1="31.2" y1="24.9" x2="33.5" y2="31.1"/>
	<line class="st2" x1="50" y1="6.7" x2="52.7" y2="12.8"/>
	<line class="st2" x1="57.8" y1="6.9" x2="60" y2="13.1"/>
	<line class="st2" x1="12.9" y1="6.6" x2="15.3" y2="12.9"/>
	<line class="st2" x1="49.5" y1="18.1" x2="51.8" y2="24.4"/>
	<line class="st2" x1="49.4" y1="53.2" x2="51.8" y2="59.4"/>
	<line class="st2" x1="57.7" y1="53.2" x2="60" y2="59.4"/>
</g>
</svg>
