<?xml version="1.0" encoding="UTF-8"?>
<svg id="Layer_1" xmlns="http://www.w3.org/2000/svg" version="1.1" viewBox="0 0 256 128">
  <!-- Generator: Adobe Illustrator 29.0.1, SVG Export Plug-In . SVG Version: 2.1.0 Build 192)  -->
  <defs>
    <style>
      .st0 {
        fill: #fff;
      }

      .st1 {
        display: none;
      }
    </style>
  </defs>
  <g id="Layer_11" data-name="Layer_1" class="st1">
    <path d="M46.9,59.7c2-8.2,9.7-12.7,16.7-16.3,3.5-1.8,7.6-4.2,11.7-3.8,1.5,0,2.6.8,3.1,2.2.5,1.7.4,3.7,0,5.4-1.4,8.7-7.4,15.7-11.2,23.5-2,3.9-4.4,8.9-2.4,13.3,1.9,4,6.3,5.7,10.5,6,5.1.4,10.5,0,15.5-1.1,4.6-1,9-3.1,12.3-6.5,2.2-2.3-1.3-5.8-3.5-3.5-2.8,2.9-6.5,4.5-10.3,5.3-4.4,1-9.2,1.2-13.7.9-1.8,0-3.7-.5-5.1-1.7s-1.6-2.7-1.2-4.4c1.1-4.2,3.5-8.1,5.7-11.8,4.4-7.4,9.7-15.8,8.5-24.8-.6-4.6-4-7.4-8.6-7.5-4.5,0-8.9,2-12.8,4-8.5,4.3-17.6,9.9-20,19.8-.9,2.8,4,4.1,4.7,1h0Z"/>
    <path d="M26.8,70.3c-9.9,5.1-18.2,13.2-23.5,23-1.3,2.4-3.3,5.8-1.6,8.5,1.7,2.7,5.2,2.3,7.6.8,2.5-1.6,4.9-3.8,7.1-5.8,2.2-2.1,4.4-4.3,6.4-6.6,4.7-5.2,8.9-10.7,13-16.3-1.4-.8-2.9-1.7-4.3-2.5-2.5,5.2-4.7,10.5-6.7,15.9-1.4,3.9-3.9,9.3-1.4,13.3,3.3,5.3,10.1,1.5,13.7-1.3,4.2-3.2,7.7-7.3,11-11.3,4.1-4.9,8-10.1,11.7-15.3-1.4-.8-2.9-1.7-4.3-2.5-1.9,2.9-3.3,6.2-3.8,9.6-.5,3.2-.7,7.6,3.3,8.7,3.4.9,7-2,9.7-3.7,3.2-2,6.3-4.1,9.3-6.3l-3.4-3.4c-1.6,2.2-3.3,4.3-4.9,6.5-1.5,2-3.3,3.9-4.1,6.2-1.7,4.7,2.1,9.4,6.6,10.5,4.4,1.1,9.4-.2,13.4-2.1,3.8-1.8,7.2-4.5,10.1-7.6,3.4-3.5,6.2-7.5,8.8-11.6,1.6-2.5-1.9-4.8-3.9-3-2.9,2.6-5.4,5.8-7.1,9.3-1.6,3.4-3.1,7.6-2.7,11.4.4,4.5,4.5,7,8.8,5.8,4-1.1,6.9-5.2,9.6-8.1,3.7-3.9,7.3-7.9,11-11.8-1.3-1-2.6-2-3.9-3-2.1,3.3-4.2,6.8-5.1,10.6-.8,3.7-.9,9.3,4.1,9.8,3.4.3,6.8-2.3,9.4-4.3,2.9-2.2,5.5-4.6,7.8-7.4,2.6-3.2,4.8-6.7,6.4-10.5.6-1.3.3-3.4-1.5-3.7-2.6-.4-4.6,1.2-4.8,3.8-.2,2.5,1.4,4.4,3.7,5.1,2.1.6,4.3.2,6.4.6,2,.4,3.9,1.2,5.6,2.2,3.6,2.3,6.5,5.7,8.7,9.3,2.4,4,4.5,9,2.6,13.6-1.7,4.1-5.6,7.2-9.3,9.5-3.9,2.4-8.1,3.9-12.6,4.9-9.2,1.9-18.7.8-27.6-2.3-10.7-3.7-20.3-10.2-28.9-17.3-1-.9-2.5-1-3.5,0s-1,2.7,0,3.5c15.5,12.8,34.4,23.7,55.2,21.8,9.5-.9,19-4.3,26-10.9,3.7-3.4,6.4-8,6.4-13.1s-2.6-10.4-5.5-14.6c-3-4.2-6.8-8-11.5-10.1-2.5-1.1-5.1-1.7-7.8-1.8h-1.8c-.4,0-.8-.3-1.1-.3s-.1,0,.2.3c0,0-.1,0,0,0h0c-.7.4.1.8-1.4.6-.5-1.2-1-2.4-1.5-3.7-2.9,6.7-7.5,12.7-13.6,17-1.3.9-2.9,2.1-4.5,2.6,0,0-.5,0-.7.2-.7.3,0-.4,0,.2,0-.8-.2-1.5,0-2.3.3-4,2.7-7.6,4.8-10.9,1.5-2.4-2-5.1-3.9-3-3.4,3.7-6.9,7.4-10.3,11.1-1.7,1.8-3.4,3.7-5.1,5.5-1.1,1.1-2.5,2.4-4.2,2.2-1.5-.2-1.3-1.6-1.2-2.8.2-2,.8-4,1.5-5.9,1.4-3.7,3.8-6.9,6.8-9.5-1.3-1-2.6-2-3.9-3-3.7,5.9-8.1,11.9-14,15.7-2.8,1.8-6,3.1-9.3,3.4-1.8.2-3.9,0-5.3-1.1-.9-.7-1.6-2-1.2-3.1.3-.9,1-1.7,1.5-2.4.7-1,1.5-2,2.2-2.9,1.6-2.2,3.3-4.3,4.9-6.5,1.5-2-1.4-4.8-3.4-3.4-2.4,1.7-4.9,3.4-7.4,5-1.2.8-2.5,1.6-3.8,2.4-1.1.6-2.1,1.4-3.3,1.9-.2,0-.6.2-.7.2.3,0,0,.4,0-.2,0-1.2,0-2.4.3-3.5.5-2.7,1.6-5.1,3.1-7.4.8-1.1.2-2.8-.9-3.4-1.2-.7-2.6-.2-3.4.9-5.4,7.7-11.3,15.5-18,22.2-1.5,1.5-3.1,2.9-4.9,4.1-1.1.7-3.6,2.6-4.9,1.7-.1,0-.3-.4-.3-.8-.1-.5,0-1.4.1-2,.4-2.1,1.2-4.2,2-6.2,1.8-5.2,3.9-10.2,6.3-15.2,1.4-2.9-2.4-5.1-4.3-2.5-6.3,8.5-12.9,16.9-20.9,23.9-1,.9-2,1.7-3,2.5-.6.5-1.4.8-1.9,1.1-.5.3-.2-.3,0,0,0,0,1.1.6.4.6s.3-1.1.4-1.2c.5-1.1,1.1-2.2,1.7-3.3,2.3-4.1,5.1-7.8,8.5-11.2,3.7-3.7,8-6.8,12.7-9.3,2.4-1.5-.2-5.8-3-4.3h0Z"/>
    <path d="M71,32.5c-2.6-.8-5.2.4-7,2.2-1.7,1.7-3.1,3.5-4.9,5.1-3.8,3.5-7.7,6.9-11.6,10.3-1.8,1.6,0,5.1,2.4,4.2,1.3-.5,2.3-1.2,3-2.4,1.7-2.8-2.6-5.3-4.3-2.5-.3.4-.2.2,0,0,.8,1.4,1.6,2.8,2.4,4.2,3.5-3.1,6.9-6.2,10.4-9.3,1.6-1.4,3.2-2.9,4.6-4.5.8-1,2.1-3,3.6-2.5,1.3.4,2.7-.5,3.1-1.7.4-1.5-.5-2.8-1.7-3.2h0Z"/>
    <path d="M54,31.5s0-.1,0,0c.8-.9,1.1-2.1.5-3.1-.6-.9-1.3-1.3-2.4-1.4-1.2-.1-2,.8-2.4,1.8-.5,1.3.3,2.5.7,3.6s.9,2.1,1.3,3.2c.9,2.2,1.8,4.4,2.6,6.6,1.7,4.5,3.4,9,5,13.5.5,1.5,2.2,2.4,3.7,1.5,1.4-.8,1.8-2.1,1.9-3.6,0-1.3-1.2-2.5-2.5-2.5s-2.4,1.1-2.5,2.5c0-.3.3-.5.6-.7,1.2.5,2.4,1,3.7,1.5-1.5-4.3-3.1-8.6-4.7-12.8-.8-2.1-1.7-4.3-2.5-6.4-.8-2-1.9-4.1-2.5-6.1v1.3c0-.1,0-.1,0-.2-.8.6-1.6,1.2-2.4,1.8h0c-.7-.4-1.4-.8-2.2-1.2,0,0,0,.1,0,.1,0-1,.3-2,.4-3h0c-2.3,2.4,1.2,5.9,3.5,3.6h0Z"/>
    <path d="M150.5,25.1c4.4,9.1,9.6,17.7,15.8,25.7.6.8,1.4,1.4,2.5,1.2.9,0,1.9-.8,2.1-1.8.2-1.3.1-2.2-.4-3.4-.6-1.2-2.3-1.5-3.4-.9-1.3.7-1.5,2.2-.9,3.4,0,0,0-.3-.1-.4,1.5-.2,3-.4,4.6-.6-6.1-8-11.4-16.6-15.8-25.7-.6-1.2-2.3-1.5-3.4-.9-1.3.7-1.5,2.2-1,3.4h0Z"/>
    <path d="M153,42.7h-.1c.2.5.5,1.1.7,1.7v-.2c-.1.4-.2.8-.3,1.3.3-.8,1.7-1.6,2.4-2.2,1-.8,2-1.5,3-2.2,2.3-1.6,4.6-3.3,7-4.9,4.6-3.2,9.2-6.3,13.9-9.4,2.7-1.8.2-6.1-2.5-4.3-5.4,3.6-10.8,7.3-16.1,11-2.5,1.8-5.1,3.5-7.6,5.4-2.1,1.6-6.7,4.6-3.9,7.6,2.1,2.1,5.7-1.4,3.5-3.8h0Z"/>
    <path d="M28,46.6c2.8,13.4,11.4,24.9,22.3,33,11.6,8.6,25.7,13.3,39.8,15.8,13.3,2.3,26.9,2.4,40.3.5,13.3-1.9,26.4-5.8,38.5-11.6,6-2.9,11.9-6.2,17.4-10,2.8-1.9,5.5-4,8.2-6.1,2.6-2.1,5.5-4.3,7-7.3.8-1.6,1.3-3.3,1.1-5-.1-1.3-1.1-2.5-2.5-2.5s-2.6,1.1-2.5,2.5c.3,3-2.4,5.3-4.6,7-2.4,2-4.8,3.9-7.3,5.7-5.2,3.7-10.6,7-16.3,9.8-11.3,5.7-23.4,9.7-35.9,11.8-12.5,2.2-25.5,2.5-38.1.8-13.1-1.8-26.3-5.6-37.7-12.5-12.2-7.5-22-19.1-25-33.3-.3-1.3-1.8-2.1-3.1-1.7-1.2.4-1.9,1.8-1.6,3.1h0Z"/>
    <path d="M74.8,89.8c1.3,8.2,6.4,15.3,12.9,20.4,7.4,5.7,16.5,8.4,25.8,9.5,9.6,1.1,19.7.8,29.3-.9,9-1.6,17.9-5,24.7-11.3,3.4-3.2,6.2-7,8.1-11.3,1.9-4.6,3.1-10.2,1.5-15-.4-1.3-1.7-2.1-3.1-1.7-1.2.3-2.2,1.8-1.7,3.1,1.3,3.6.4,7.8-1,11.3-1.3,3.3-3.4,6.3-5.9,8.9-5.8,5.9-13.4,9.2-21.4,10.9-8.6,1.8-17.8,2.1-26.6,1.5-8.4-.6-17-2.5-24.2-7.1-6.8-4.4-12.1-11.2-13.5-19.4-.2-1.3-1.9-2.1-3.1-1.7-1.4,0-2,1.5-1.8,2.8h0Z"/>
    <path d="M124.2,95.6c1.2,5.7,2.4,11.4,3.6,17.1.4,1.8,3,2.5,4.2,1.1.9-1,1.2-2.1.9-3.5-.3-1.3-1.8-2.1-3.1-1.7s-2.1,1.8-1.7,3.1c.1-.5.3-.9.4-1.4,1.4.4,2.8.7,4.2,1.1-1.2-5.7-2.4-11.4-3.6-17.1-.3-1.3-1.8-2.1-3.1-1.7-1.4.3-2.1,1.7-1.8,3h0Z"/>
    <path d="M239.2,5.4c-6.9,3.3-14.5,4.9-21.8,7.3-7.6,2.5-15.2,5.3-22.7,8.1-1.3.5-2.1,1.7-1.7,3.1.3,1.2,1.8,2.2,3.1,1.7,7.7-2.9,15.4-5.7,23.2-8.3,7.5-2.5,15.3-4.3,22.5-7.7,1.2-.6,1.5-2.3.9-3.4-.8-1.1-2.2-1.4-3.5-.8h0Z"/>
    <path d="M224.4,13.8c.9-1.8,1.9-3.5,3.2-5.1-.1.2-.3.3-.4.5.6-.8,1.3-1.6,2-2.4.9-.9,1-2.6,0-3.5s-2.6-1-3.5,0c-2.2,2.4-4.2,5.1-5.6,8-.3.6-.4,1.3-.3,1.9.2.6.6,1.2,1.1,1.5,1.2.6,2.9.4,3.5-.9h0Z"/>
    <path d="M228.4,12.2c1.8-1.7,3.5-3.4,5.2-5.3.4-.5.7-1.1.7-1.8s-.3-1.3-.7-1.8c-.5-.4-1.1-.8-1.8-.7-.6,0-1.3.2-1.8.7-1.7,1.8-3.4,3.6-5.2,5.3-.5.4-.7,1.1-.7,1.8s.3,1.3.7,1.8c.5.4,1.1.8,1.8.7.7,0,1.4-.2,1.8-.7h0Z"/>
    <path d="M237.4,10.2c1.3-1.4,2.7-2.6,4.2-3.8-.2,0-.3.3-.5.4.6-.4,1.1-.8,1.7-1.3.5-.4,1-.8,1.1-1.5.2-.6.1-1.4-.3-1.9-.3-.5-.9-1-1.5-1.1s-1.4-.1-1.9.3c-2.3,1.6-4.5,3.4-6.4,5.4-.4.5-.7,1.1-.7,1.8s.3,1.3.7,1.8c.5.4,1.1.8,1.8.7s1.3-.3,1.8-.8h0Z"/>
    <path d="M224.1,14.6c2.1,1.4,4.2,2.8,6.4,4.1,2.2,1.4,4.6,2.5,7.3,2.5s2.6-1.1,2.5-2.5c-.1-1.3-1.1-2.5-2.5-2.5h-.9c.6,0-.2-.1-.4-.1-.2-.1-.5-.1-.7-.2-.1,0-.8-.3-.3-.1-1-.4-1.9-1-2.9-1.6-2-1.3-4-2.6-6-3.9-1.1-.7-2.8-.3-3.4.9-.7,1.2-.3,2.6.9,3.4h0Z"/>
    <path d="M237.3,15.7c.8,1,1.7,1.9,2.7,2.5.4.2.8.4,1.2.6s.5.2.8.2c.9.2,1.8.2,2.7-.1.6-.2,1.2-.6,1.5-1.1s.4-1.3.3-1.9c-.2-.6-.6-1.2-1.1-1.5-.6-.3-1.3-.5-1.9-.3-.2.1-.3.1-.5.1.2,0,.4-.1.7-.1h-.7c.2,0,.4.1.7.1-.3,0-.7-.1-1-.3.2.1.4.2.6.3-.4-.2-.7-.4-1-.6.2.1.3.3.5.4-.7-.5-1.2-1.2-1.8-1.8-.4-.5-1.2-.7-1.8-.7s-1.3.3-1.8.7c-.4.5-.8,1.1-.7,1.8,0,.2.1.4.1.7s.2.6.5,1h0Z"/>
    <path d="M241.6,13.9h.7-.7c.5,0,1,.2,1.4.3-.2-.1-.4-.2-.6-.3,1.6.7,3.1,1.6,4.7,2.4.6.3,1.3.4,1.9.3.6-.2,1.2-.6,1.5-1.1.6-1.1.3-2.8-.9-3.4-1.2-.6-2.4-1.2-3.5-1.8-1.4-.7-2.9-1.4-4.5-1.3-.7,0-1.3.3-1.8.7-.4.4-.8,1.1-.7,1.8.1,1.2,1.1,2.5,2.5,2.4h0Z"/>
    <path d="M29.2,47.7c-7,2.5-14,5.1-21.1,7.6-1.2.4-2.1,1.7-1.7,3,.3,1.2,1.8,2.2,3.1,1.7,7-2.5,14-5.1,21.1-7.6,1.3-.5,2.1-1.7,1.7-3.1-.3-1.1-1.8-2.1-3.1-1.6h0Z"/>
    <path d="M12,46.1c-3,3.8-5.9,7.7-8.6,11.7-.9,1.4,0,3.3,1.5,3.7,2.5.7,4.6,2.1,6.5,3.6,2.1,1.7,4.2,3.3,6.9,3.9,1.3.3,2.7-.4,3.1-1.7.3-1.2-.4-2.8-1.7-3.1-2.2-.5-3.9-2-5.6-3.3-2.4-1.8-4.8-3.3-7.7-4.1.5,1.2,1,2.4,1.5,3.7,2.5-3.6,5.1-7.2,7.8-10.7.8-1.1,1-2.5,0-3.5-1.1-1.1-2.9-1.3-3.7-.2h0Z"/>
  </g>
  <g id="Layer_2" class="st1">
    <path d="M18.4,94.6c.9-2.5,2.4-4.8,3.9-7,1.7-2.4,3.5-4.9,5.3-7.3,3.4-4.7,6.9-9.4,10.4-14,6.4-8.5,13-16.8,20.5-24.3s8.7-8.2,13.5-11.8c-1.2-.9-2.4-1.9-3.7-2.8-1.8,11.1-4.7,22-8.9,32.5-.4,1,.3,2.3,1.1,2.8,1,.6,2.2.3,3-.4,2.9-2.5,5-5.8,7.7-8.4.6-.6,1.2-1.1,1.8-1.6.4-.2.7-.4,1.1-.7h.3c-.6.5-1-1.7-1.3-.9-.2.4,0,1.1,0,1.6s0,1.3,0,1.9c0,1.4-.3,2.8.8,3.9,1.9,2,4.4.5,6-1.1s1.1-1.1,1.6-1.5c.3-.3.2,0,0,0-.2,0,.3.7.2.3.6,1.9.9,3.5.9,5.5s-.2,4.3-.2,6.5c0,2.4,0,4.9.6,7.2.6,2.3,2.3,5.8,5.4,4.7,1.3-.5,2.1-1.7,1.7-3.1-.3-1.2-1.8-2.2-3.1-1.7h0c.4,0,.8.2,1.3.3q-.3-.2-.2,0c.2.2.2,0,0-.2,0-.3-.2-.6-.3-.9-.2-.7-.4-1.4-.4-2-.2-1.5-.2-3.1,0-4.6,0-3.3.4-6.6,0-9.9-.4-3-1.8-6.8-5.5-7-1.5,0-2.8.6-3.9,1.6-.5.4-1,.9-1.4,1.4-.2.2-.5.5-.7.7-.4.5.3,0-.3,0h1.3c0,0-.2,0-.3,0,.4.2.7.4,1.1.6q0,0-.2-.2c.2.4.4.7.6,1.1-.2-.5,0-1.4,0-2,0-.7,0-1.4,0-2.1,0-1.5,0-3-1.1-4.1-2.2-2-5.2-.5-7.2,1-3.8,2.9-6.1,7.2-9.8,10.3,1.4.8,2.8,1.6,4.2,2.4,4.1-10.5,7.1-21.4,8.9-32.5.2-1,0-2-.9-2.6-.7-.5-2-.8-2.8-.2-18.2,13.5-31.7,32.1-45,50.3-2,2.8-4.1,5.6-6.1,8.4-2,2.7-3.8,5.5-4.8,8.7-1,3,3.8,4.3,4.9,1.3h0Z"/>
    <path d="M104.1,67.9h0c-.2.3-.4.6-.5.9-.2.3-.2.6-.2,1s0,.7.2,1,.3.6.5.8c.2,0,.3.3.5.4.4.2.8.3,1.3.3s.4,0,.7,0c.4,0,.8-.3,1.1-.6h0c.2-.3.4-.6.5-.9.2-.3.2-.6.2-1s0-.7-.2-1-.3-.6-.5-.8c-.2,0-.3-.3-.5-.4-.4-.2-.8-.3-1.3-.3s-.4,0-.7,0c-.4,0-.7.3-1.1.6h0Z"/>
    <path d="M148.9,33.3c-.6,2.2.4,4.4,2.3,5.6,1.8,1.2,4.2,1.1,6.1.3,1.8-.7,3.3-2.2,5.2-2.8,1.8-.6,2.3,1.1,3.1,2.3,2.2,3.3,4.9,7.3,8.8,8.7,1.9.7,4,.6,6,.9,2.2.3,4.3.9,6.3,1.8,1.2.6,2.7.4,3.4-.9.6-1.1.3-2.9-.9-3.4-1.9-.8-3.8-1.5-5.7-2-2-.5-3.9-.6-5.9-.8-3.4-.4-5.6-3.9-7.4-6.5-1-1.6-1.9-3.3-3.5-4.4-1.7-1.1-3.8-1.1-5.6-.5-1.8.6-3.3,1.8-5,2.7-.5.3-1.3.7-2,.4-.2,0-.2-.3-.3,0,.7-3.1-4.1-4.4-4.9-1.3h0Z"/>
    <path d="M222.4,51.1c.1,0,.2,0,.2,0-.2,0-.4-.2-.6-.3.3,0,.6.3.8.5,0,0-.3-.2-.4-.3h0c.3.2.5.4.8.5.3.2.6.2,1,.2s.7,0,1-.2c.3,0,.6-.3.8-.5.1-.2.3-.3.4-.5.2-.4.3-.8.3-1.3s-.1-.4-.1-.7c-.1-.4-.3-.8-.6-1.1-.2-.2-.4-.3-.6-.5h-.1c-.1-.2-.2-.2-.3-.3-.1,0-.2,0-.3,0-.2,0-.5-.2-.7-.3q-.1,0-.2,0c-.3,0-.7,0-1,0-.3,0-.6,0-.9.3-.3.2-.5.4-.7.6-.2.2-.4.5-.4.9s-.1.4-.1.7c0,.5.1.9.3,1.3.1.2.3.3.4.5.2.3.6.5,1,.6h0Z"/>
    <path d="M139,70.9c5.1-.5,10.3-.5,15.4-.4,5.3,0,10.6.2,15.9.3,10.6.2,21.2.5,31.9.9,6,.2,11.9.4,17.9.7,3.2,0,3.2-4.9,0-5-21.2-.9-42.5-1.5-63.7-1.9-5.8,0-11.6-.2-17.4.4-1.3,0-2.5,1.1-2.5,2.5,0,1.3,1.2,2.6,2.5,2.5h0Z"/>
  </g>
  <g id="Layer_3">
    <path class="st0" d="M14.5,116.3c5.8-.2,11.5-.4,17.3-.7,2.9,0,5.8-.2,8.7-.3,2.6,0,5.3-.2,7.9-.8,1.2-.3,2.5-.8,3.6-1.4,1-.5,1.9-1.3,3-1.7,1.1-.4,2.1,0,3.2.4,1.3.5,2.6,1,3.9,1.5,5.3,1.7,10.9,2.3,16.4,2.9,11.4,1.2,22.9,1.6,34.3,1,5.8-.3,11.5-.8,17.3-1.1,5.7-.3,11.4-.4,17.1-.3,13.1,0,26.1.9,39.2,1.7,3.2.2,3.2-4.8,0-5-11.6-.7-23.1-1.4-34.7-1.7-11.6-.2-23.1.3-34.6,1.1-11.4.7-22.9.7-34.3-.3-5.5-.5-11-1-16.4-2.3-2.6-.6-5-1.8-7.6-2.6-2.7-.8-5.2-.2-7.6,1.2-1.2.7-2.3,1.3-3.6,1.7-1.3.4-2.7.5-4,.6-3.1.2-6.2.3-9.3.4-6.5.3-13,.5-19.5.8-3.5,0-3.5,5-.3,4.9h0Z"/>
    <path class="st0" d="M210.7,110.8h0c.2.2.3.4.4.5h0c.1,0,.3.2.3.2,0,0,.2,0,.3.2h0l.6.3h1c.2,0,.4,0,.7,0h.1c.1,0,.3,0,.3,0,.1,0,.2,0,.3,0h0c.2,0,.3-.3.5-.4h0c.1-.2.3-.3.4-.5h0c-1.6-.5-3.1-.9-4.7-1.4,0,.2,0,.4-.1.6,0,.3.1.7.2,1,.1.3.3.6.5.8.2,0,.3.3.5.4.4.2.8.3,1.3.3h.2c.2,0,.5,0,.7,0s.1,0,.2,0l.6-.3h.1c.2,0,.4-.3.5-.4,0,0,.1,0,.1,0,.2-.2.4-.5.5-.8.2-.3.2-.6.2-1s-.1-.7-.2-1c-.1-.3-.3-.6-.5-.8-.2,0-.3-.3-.5-.4-.4-.2-.8-.3-1.3-.3s-.4,0-.7,0c-.4,0-.8.3-1.1.6h-.1c.2,0,.3-.2.5-.3-.1,0-.1,0-.2,0l.6-.3q-.1,0-.2,0c.2,0,.4,0,.7,0h-.2l2.5,2.5c0-.2,0-.4.1-.6,0-.2-.1-.4-.1-.7-.1-.3-.2-.6-.4-.9-.1-.2-.3-.3-.4-.4-.2-.2-.5-.4-.9-.4s-.4,0-.7,0-.4,0-.7,0c-.3,0-.6.2-.9.4-.3.2-.5.4-.6.7h0c.1,0,.3-.2.4-.4h-.1c.2,0,.3-.2.5-.3h-.1l.6-.3h-.1c.2,0,.4,0,.7,0h-.1c.2,0,.4,0,.7,0h-.1l.6.3h-.1c.2,0,.3.3.5.4h-.1c.1,0,.3.2.4.4h0c-.2-.3-.4-.5-.6-.7-.2-.2-.5-.4-.9-.4-.3,0-.7,0-1,0-.3,0-.6,0-.9.3-.2,0-.3.3-.5.4-.3.3-.5.7-.6,1.1,0,.2-.1.4-.1.7.1.5.2.9.5,1.3h0Z"/>
  </g>
</svg>