<?xml version="1.0" encoding="utf-8"?>
<!-- Generator: Adobe Illustrator 27.9.0, SVG Export Plug-In . SVG Version: 6.00 Build 0)  -->
<svg version="1.0" xmlns="http://www.w3.org/2000/svg" xmlns:xlink="http://www.w3.org/1999/xlink" x="0px" y="0px"
	 viewBox="0 0 256 128" style="enable-background:new 0 0 256 128;" xml:space="preserve">
<style type="text/css">
	.st0{display:none;}
	.st1{display:inline;}
</style>
<g id="Layer_1" class="st0">
	<g>
		<g class="st1">
			<path d="M46.9,59.7c2-8.2,9.7-12.7,16.7-16.3c3.5-1.8,7.6-4.2,11.7-3.8c1.5,0.1,2.6,0.8,3.1,2.2c0.5,1.7,0.4,3.7,0.1,5.4
				c-1.4,8.7-7.4,15.7-11.2,23.5c-2,3.9-4.4,8.9-2.4,13.3c1.9,4,6.3,5.7,10.5,6c5.1,0.4,10.5,0,15.5-1.1c4.6-1,9-3.1,12.3-6.5
				c2.2-2.3-1.3-5.8-3.5-3.5c-2.8,2.9-6.5,4.5-10.3,5.3c-4.4,1-9.2,1.2-13.7,0.9c-1.8-0.1-3.7-0.5-5.1-1.7c-1.4-1.2-1.6-2.7-1.2-4.4
				c1.1-4.2,3.5-8.1,5.7-11.8c4.4-7.4,9.7-15.8,8.5-24.8c-0.6-4.6-4-7.4-8.6-7.5c-4.5-0.1-8.9,2-12.8,4c-8.5,4.3-17.6,9.9-20,19.8
				C41.3,61.5,46.2,62.8,46.9,59.7L46.9,59.7z"/>
		</g>
	</g>
	<g>
		<g class="st1">
			<path d="M26.8,70.3C16.9,75.4,8.6,83.5,3.3,93.3C2,95.7,0,99.1,1.7,101.8c1.7,2.7,5.2,2.3,7.6,0.8c2.5-1.6,4.9-3.8,7.1-5.8
				c2.2-2.1,4.4-4.3,6.4-6.6c4.7-5.2,8.9-10.7,13-16.3c-1.4-0.8-2.9-1.7-4.3-2.5c-2.5,5.2-4.7,10.5-6.7,15.9
				c-1.4,3.9-3.9,9.3-1.4,13.3c3.3,5.3,10.1,1.5,13.7-1.3c4.2-3.2,7.7-7.3,11-11.3c4.1-4.9,8-10.1,11.7-15.3
				c-1.4-0.8-2.9-1.7-4.3-2.5c-1.9,2.9-3.3,6.2-3.8,9.6C51.2,83,51,87.4,55,88.5c3.4,0.9,7-2,9.7-3.7c3.2-2,6.3-4.1,9.3-6.3
				c-1.1-1.1-2.3-2.3-3.4-3.4c-1.6,2.2-3.3,4.3-4.9,6.5c-1.5,2-3.3,3.9-4.1,6.2c-1.7,4.7,2.1,9.4,6.6,10.5c4.4,1.1,9.4-0.2,13.4-2.1
				c3.8-1.8,7.2-4.5,10.1-7.6c3.4-3.5,6.2-7.5,8.8-11.6c1.6-2.5-1.9-4.8-3.9-3c-2.9,2.6-5.4,5.8-7.1,9.3c-1.6,3.4-3.1,7.6-2.7,11.4
				c0.4,4.5,4.5,7,8.8,5.8c4-1.1,6.9-5.2,9.6-8.1c3.7-3.9,7.3-7.9,11-11.8c-1.3-1-2.6-2-3.9-3c-2.1,3.3-4.2,6.8-5.1,10.6
				c-0.8,3.7-0.9,9.3,4.1,9.8c3.4,0.3,6.8-2.3,9.4-4.3c2.9-2.2,5.5-4.6,7.8-7.4c2.6-3.2,4.8-6.7,6.4-10.5c0.6-1.3,0.3-3.4-1.5-3.7
				c-2.6-0.4-4.6,1.2-4.8,3.8c-0.2,2.5,1.4,4.4,3.7,5.1c2.1,0.6,4.3,0.2,6.4,0.6c2,0.4,3.9,1.2,5.6,2.2c3.6,2.3,6.5,5.7,8.7,9.3
				c2.4,4,4.5,9,2.6,13.6c-1.7,4.1-5.6,7.2-9.3,9.5c-3.9,2.4-8.1,3.9-12.6,4.9c-9.2,1.9-18.7,0.8-27.6-2.3
				c-10.7-3.7-20.3-10.2-28.9-17.3c-1-0.9-2.5-1-3.5,0c-0.9,0.9-1,2.7,0,3.5c15.5,12.8,34.4,23.7,55.2,21.8c9.5-0.9,19-4.3,26-10.9
				c3.7-3.4,6.4-8,6.4-13.1c0-5.2-2.6-10.4-5.5-14.6c-3-4.2-6.8-8-11.5-10.1c-2.5-1.1-5.1-1.7-7.8-1.8c-0.6,0-1.2,0-1.8,0
				c-0.4,0-0.8-0.3-1.1-0.3c-0.3,0-0.1,0.1,0.2,0.3c0,0-0.1-0.1,0-0.1c0,0,0-0.1,0-0.1c0,0.1,0,0.2,0,0.2c-0.7,0.3,0.1,0.7-1.4,0.5
				c-0.5-1.2-1-2.4-1.5-3.7c-2.9,6.7-7.5,12.7-13.6,17c-1.3,0.9-2.9,2.1-4.5,2.6c-0.1,0-0.5,0.1-0.7,0.2c-0.7,0.3-0.1-0.4,0,0.2
				c-0.1-0.8-0.2-1.5-0.1-2.3c0.3-4,2.7-7.6,4.8-10.9c1.5-2.4-2-5.1-3.9-3c-3.4,3.7-6.9,7.4-10.3,11.1c-1.7,1.8-3.4,3.7-5.1,5.5
				c-1.1,1.1-2.5,2.4-4.2,2.2c-1.5-0.2-1.3-1.6-1.2-2.8c0.2-2,0.8-4,1.5-5.9c1.4-3.7,3.8-6.9,6.8-9.5c-1.3-1-2.6-2-3.9-3
				c-3.7,5.9-8.1,11.9-14,15.7c-2.8,1.8-6,3.1-9.3,3.4c-1.8,0.2-3.9,0.1-5.3-1.1c-0.9-0.7-1.6-2-1.2-3.1c0.3-0.9,1-1.7,1.5-2.4
				c0.7-1,1.5-2,2.2-2.9c1.6-2.2,3.3-4.3,4.9-6.5c1.5-2-1.4-4.8-3.4-3.4c-2.4,1.7-4.9,3.4-7.4,5c-1.2,0.8-2.5,1.6-3.8,2.4
				c-1.1,0.6-2.1,1.4-3.3,1.9c-0.2,0.1-0.6,0.2-0.7,0.2c0.3,0,0.1,0.4,0.1-0.2c-0.1-1.2,0.1-2.4,0.3-3.5c0.5-2.7,1.6-5.1,3.1-7.4
				c0.8-1.1,0.2-2.8-0.9-3.4c-1.2-0.7-2.6-0.2-3.4,0.9c-5.4,7.7-11.3,15.5-18,22.2c-1.5,1.5-3.1,2.9-4.9,4.1
				c-1.1,0.7-3.6,2.6-4.9,1.7c-0.1-0.1-0.3-0.4-0.3-0.8c-0.1-0.5,0-1.4,0.1-2c0.4-2.1,1.2-4.2,2-6.2c1.8-5.2,3.9-10.2,6.3-15.2
				c1.4-2.9-2.4-5.1-4.3-2.5c-6.3,8.5-12.9,16.9-20.9,23.9c-1,0.9-2,1.7-3,2.5c-0.6,0.5-1.4,0.8-1.9,1.1c-0.5,0.3-0.2-0.3,0,0.1
				c0,0,1.1,0.6,0.4,0.6c-0.1,0,0.3-1.1,0.4-1.2c0.5-1.1,1.1-2.2,1.7-3.3c2.3-4.1,5.1-7.8,8.5-11.2c3.7-3.7,8-6.8,12.7-9.3
				C32.2,73.1,29.6,68.8,26.8,70.3L26.8,70.3z"/>
		</g>
	</g>
	<g class="st1">
		<g>
			<path d="M71,32.5c-2.6-0.8-5.2,0.4-7,2.2c-1.7,1.7-3.1,3.5-4.9,5.1c-3.8,3.5-7.7,6.9-11.6,10.3c-1.8,1.6,0.1,5.1,2.4,4.2
				c1.3-0.5,2.3-1.2,3-2.4c1.7-2.8-2.6-5.3-4.3-2.5c-0.3,0.4-0.2,0.2,0,0.1c0.8,1.4,1.6,2.8,2.4,4.2c3.5-3.1,6.9-6.2,10.4-9.3
				c1.6-1.4,3.2-2.9,4.6-4.5c0.8-1,2.1-3,3.6-2.5c1.3,0.4,2.7-0.5,3.1-1.7C73.1,34.2,72.2,32.9,71,32.5L71,32.5z"/>
		</g>
	</g>
	<g class="st1">
		<g>
			<path d="M54,31.5C54,31.5,54,31.4,54,31.5c0.8-0.9,1.1-2.1,0.5-3.1c-0.6-0.9-1.3-1.3-2.4-1.4c-1.2-0.1-2,0.8-2.4,1.8
				c-0.5,1.3,0.3,2.5,0.7,3.6c0.4,1.1,0.9,2.1,1.3,3.2c0.9,2.2,1.8,4.4,2.6,6.6c1.7,4.5,3.4,9,5,13.5c0.5,1.5,2.2,2.4,3.7,1.5
				c1.4-0.8,1.8-2.1,1.9-3.6c0.1-1.3-1.2-2.5-2.5-2.5c-1.4,0-2.4,1.1-2.5,2.5c0.1-0.3,0.3-0.5,0.6-0.7c1.2,0.5,2.4,1,3.7,1.5
				c-1.5-4.3-3.1-8.6-4.7-12.8c-0.8-2.1-1.7-4.3-2.5-6.4c-0.8-2-1.9-4.1-2.5-6.1c0,0.4,0,0.9,0,1.3c0-0.1,0.1-0.1,0.1-0.2
				c-0.8,0.6-1.6,1.2-2.4,1.8c0,0,0.1,0,0.1,0c-0.7-0.4-1.4-0.8-2.2-1.2c0,0,0,0.1,0.1,0.1c0.1-1,0.3-2,0.4-3c0,0,0,0-0.1,0.1
				C48.2,30.3,51.7,33.8,54,31.5L54,31.5z"/>
		</g>
	</g>
	<g class="st1">
		<g>
			<path d="M150.5,25.1c4.4,9.1,9.6,17.7,15.8,25.7c0.6,0.8,1.4,1.4,2.5,1.2c0.9-0.1,1.9-0.8,2.1-1.8c0.2-1.3,0.1-2.2-0.4-3.4
				c-0.6-1.2-2.3-1.5-3.4-0.9c-1.3,0.7-1.5,2.2-0.9,3.4c0-0.1,0-0.3-0.1-0.4c1.5-0.2,3-0.4,4.6-0.6c-6.1-8-11.4-16.6-15.8-25.7
				c-0.6-1.2-2.3-1.5-3.4-0.9C150.2,22.4,150,23.9,150.5,25.1L150.5,25.1z"/>
		</g>
	</g>
	<g class="st1">
		<g>
			<path d="M153,42.7c0,0-0.1-0.1-0.1-0.1c0.2,0.6,0.5,1.2,0.7,1.8c0-0.1,0-0.1,0-0.2c-0.1,0.4-0.2,0.8-0.3,1.3
				c0.3-0.8,1.7-1.6,2.4-2.2c1-0.8,2-1.5,3-2.2c2.3-1.6,4.6-3.3,7-4.9c4.6-3.2,9.2-6.3,13.9-9.4c2.7-1.8,0.2-6.1-2.5-4.3
				c-5.4,3.6-10.8,7.3-16.1,11c-2.5,1.8-5.1,3.5-7.6,5.4c-2.1,1.6-6.7,4.6-3.9,7.6C151.6,48.6,155.2,45.1,153,42.7L153,42.7z"/>
		</g>
	</g>
	<g class="st1">
		<g>
			<path d="M28,46.6c2.8,13.4,11.4,24.9,22.3,33C61.9,88.2,76,92.9,90.1,95.4c13.3,2.3,26.9,2.4,40.3,0.5
				c13.3-1.9,26.4-5.8,38.5-11.6c6-2.9,11.9-6.2,17.4-10c2.8-1.9,5.5-4,8.2-6.1c2.6-2.1,5.5-4.3,7-7.3c0.8-1.6,1.3-3.3,1.1-5
				c-0.1-1.3-1.1-2.5-2.5-2.5c-1.3,0-2.6,1.1-2.5,2.5c0.3,3-2.4,5.3-4.6,7c-2.4,2-4.8,3.9-7.3,5.7c-5.2,3.7-10.6,7-16.3,9.8
				c-11.3,5.7-23.4,9.7-35.9,11.8c-12.5,2.2-25.5,2.5-38.1,0.8c-13.1-1.8-26.3-5.6-37.7-12.5c-12.2-7.5-22-19.1-25-33.3
				c-0.3-1.3-1.8-2.1-3.1-1.7C28.4,43.9,27.7,45.3,28,46.6L28,46.6z"/>
		</g>
	</g>
	<g class="st1">
		<g>
			<path d="M74.8,89.8c1.3,8.2,6.4,15.3,12.9,20.4c7.4,5.7,16.5,8.4,25.8,9.5c9.6,1.1,19.7,0.8,29.3-0.9c9-1.6,17.9-5,24.7-11.3
				c3.4-3.2,6.2-7,8.1-11.3c1.9-4.6,3.1-10.2,1.5-15c-0.4-1.3-1.7-2.1-3.1-1.7c-1.2,0.3-2.2,1.8-1.7,3.1c1.3,3.6,0.4,7.8-1,11.3
				c-1.3,3.3-3.4,6.3-5.9,8.9c-5.8,5.9-13.4,9.2-21.4,10.9c-8.6,1.8-17.8,2.1-26.6,1.5c-8.4-0.6-17-2.5-24.2-7.1
				c-6.8-4.4-12.1-11.2-13.5-19.4c-0.2-1.3-1.9-2.1-3.1-1.7C75.2,87.1,74.6,88.5,74.8,89.8L74.8,89.8z"/>
		</g>
	</g>
	<g class="st1">
		<g>
			<path d="M124.2,95.6c1.2,5.7,2.4,11.4,3.6,17.1c0.4,1.8,3,2.5,4.2,1.1c0.9-1,1.2-2.1,0.9-3.5c-0.3-1.3-1.8-2.1-3.1-1.7
				c-1.3,0.4-2.1,1.8-1.7,3.1c0.1-0.5,0.3-0.9,0.4-1.4c1.4,0.4,2.8,0.7,4.2,1.1c-1.2-5.7-2.4-11.4-3.6-17.1
				c-0.3-1.3-1.8-2.1-3.1-1.7C124.6,92.9,123.9,94.3,124.2,95.6L124.2,95.6z"/>
		</g>
	</g>
	<g class="st1">
		<g>
			<path d="M239.2,5.4c-6.9,3.3-14.5,4.9-21.8,7.3c-7.6,2.5-15.2,5.3-22.7,8.1c-1.3,0.5-2.1,1.7-1.7,3.1c0.3,1.2,1.8,2.2,3.1,1.7
				c7.7-2.9,15.4-5.7,23.2-8.3c7.5-2.5,15.3-4.3,22.5-7.7c1.2-0.6,1.5-2.3,0.9-3.4C241.9,5.1,240.5,4.8,239.2,5.4L239.2,5.4z"/>
		</g>
	</g>
	<g class="st1">
		<g>
			<path d="M224.4,13.8c0.9-1.8,1.9-3.5,3.2-5.1c-0.1,0.2-0.3,0.3-0.4,0.5c0.6-0.8,1.3-1.6,2-2.4c0.9-0.9,1-2.6,0-3.5
				c-1-0.9-2.6-1-3.5,0c-2.2,2.4-4.2,5.1-5.6,8c-0.3,0.6-0.4,1.3-0.3,1.9c0.2,0.6,0.6,1.2,1.1,1.5C222.1,15.3,223.8,15.1,224.4,13.8
				L224.4,13.8z"/>
		</g>
	</g>
	<g class="st1">
		<g>
			<path d="M228.4,12.2c1.8-1.7,3.5-3.4,5.2-5.3c0.4-0.5,0.7-1.1,0.7-1.8c0-0.6-0.3-1.3-0.7-1.8c-0.5-0.4-1.1-0.8-1.8-0.7
				c-0.6,0-1.3,0.2-1.8,0.7c-1.7,1.8-3.4,3.6-5.2,5.3c-0.5,0.4-0.7,1.1-0.7,1.8c0,0.6,0.3,1.3,0.7,1.8c0.5,0.4,1.1,0.8,1.8,0.7
				C227.3,12.9,228,12.7,228.4,12.2L228.4,12.2z"/>
		</g>
	</g>
	<g class="st1">
		<g>
			<path d="M237.4,10.2c1.3-1.4,2.7-2.6,4.2-3.8c-0.2,0.1-0.3,0.3-0.5,0.4c0.6-0.4,1.1-0.8,1.7-1.3c0.5-0.4,1-0.8,1.1-1.5
				c0.2-0.6,0.1-1.4-0.3-1.9c-0.3-0.5-0.9-1-1.5-1.1c-0.6-0.1-1.4-0.1-1.9,0.3c-2.3,1.6-4.5,3.4-6.4,5.4c-0.4,0.5-0.7,1.1-0.7,1.8
				c0,0.6,0.3,1.3,0.7,1.8c0.5,0.4,1.1,0.8,1.8,0.7C236.3,10.9,236.9,10.7,237.4,10.2L237.4,10.2z"/>
		</g>
	</g>
	<g class="st1">
		<g>
			<path d="M224.1,14.6c2.1,1.4,4.2,2.8,6.4,4.1c2.2,1.4,4.6,2.5,7.3,2.5c1.3,0,2.6-1.1,2.5-2.5c-0.1-1.3-1.1-2.5-2.5-2.5
				c-0.3,0-0.6,0-0.9,0c0.6,0-0.2-0.1-0.4-0.1c-0.2-0.1-0.5-0.1-0.7-0.2c-0.1,0-0.8-0.3-0.3-0.1c-1-0.4-1.9-1-2.9-1.6
				c-2-1.3-4-2.6-6-3.9c-1.1-0.7-2.8-0.3-3.4,0.9C222.5,12.4,222.9,13.8,224.1,14.6L224.1,14.6z"/>
		</g>
	</g>
	<g class="st1">
		<g>
			<path d="M237.3,15.7c0.8,1,1.7,1.9,2.7,2.5c0.4,0.2,0.8,0.4,1.2,0.6c0.2,0.1,0.5,0.2,0.8,0.2c0.9,0.2,1.8,0.2,2.7-0.1
				c0.6-0.2,1.2-0.6,1.5-1.1c0.3-0.5,0.4-1.3,0.3-1.9c-0.2-0.6-0.6-1.2-1.1-1.5c-0.6-0.3-1.3-0.5-1.9-0.3c-0.2,0.1-0.3,0.1-0.5,0.1
				c0.2,0,0.4-0.1,0.7-0.1c-0.2,0-0.5,0-0.7,0c0.2,0,0.4,0.1,0.7,0.1c-0.3,0-0.7-0.1-1-0.3c0.2,0.1,0.4,0.2,0.6,0.3
				c-0.4-0.2-0.7-0.4-1-0.6c0.2,0.1,0.3,0.3,0.5,0.4c-0.7-0.5-1.2-1.2-1.8-1.8c-0.4-0.5-1.2-0.7-1.8-0.7c-0.6,0-1.3,0.3-1.8,0.7
				c-0.4,0.5-0.8,1.1-0.7,1.8c0,0.2,0.1,0.4,0.1,0.7C236.8,15,237,15.3,237.3,15.7L237.3,15.7z"/>
		</g>
	</g>
	<g class="st1">
		<g>
			<path d="M241.6,13.9c0.2,0,0.5,0,0.7,0C242.1,13.9,241.9,13.9,241.6,13.9c0.5,0,1,0.2,1.4,0.3c-0.2-0.1-0.4-0.2-0.6-0.3
				c1.6,0.7,3.1,1.6,4.7,2.4c0.6,0.3,1.3,0.4,1.9,0.3c0.6-0.2,1.2-0.6,1.5-1.1c0.6-1.1,0.3-2.8-0.9-3.4c-1.2-0.6-2.4-1.2-3.5-1.8
				c-1.4-0.7-2.9-1.4-4.5-1.3c-0.7,0-1.3,0.3-1.8,0.7c-0.4,0.4-0.8,1.1-0.7,1.8C239.2,12.7,240.2,14,241.6,13.9L241.6,13.9z"/>
		</g>
	</g>
	<g class="st1">
		<g>
			<path d="M29.2,47.7c-7,2.5-14,5.1-21.1,7.6C6.9,55.7,6,57,6.4,58.3c0.3,1.2,1.8,2.2,3.1,1.7c7-2.5,14-5.1,21.1-7.6
				c1.3-0.5,2.1-1.7,1.7-3.1C32,48.2,30.5,47.2,29.2,47.7L29.2,47.7z"/>
		</g>
	</g>
	<g class="st1">
		<g>
			<path d="M12,46.1c-3,3.8-5.9,7.7-8.6,11.7c-0.9,1.4,0,3.3,1.5,3.7c2.5,0.7,4.6,2.1,6.5,3.6c2.1,1.7,4.2,3.3,6.9,3.9
				c1.3,0.3,2.7-0.4,3.1-1.7c0.3-1.2-0.4-2.8-1.7-3.1c-2.2-0.5-3.9-2-5.6-3.3c-2.4-1.8-4.8-3.3-7.7-4.1c0.5,1.2,1,2.4,1.5,3.7
				c2.5-3.6,5.1-7.2,7.8-10.7c0.8-1.1,1-2.5,0-3.5C14.6,45.2,12.8,45,12,46.1L12,46.1z"/>
		</g>
	</g>
</g>
<g id="Layer_2" class="st0">
	<g class="st1">
		<g>
			<path d="M18.4,94.6c0.9-2.5,2.4-4.8,3.9-7c1.7-2.4,3.5-4.9,5.3-7.3c3.4-4.7,6.9-9.4,10.4-14c6.4-8.5,13-16.8,20.5-24.3
				c4.2-4.2,8.7-8.2,13.5-11.8c-1.2-0.9-2.4-1.9-3.7-2.8c-1.8,11.1-4.7,22-8.9,32.5c-0.4,1,0.3,2.3,1.1,2.8c1,0.6,2.2,0.3,3-0.4
				c2.9-2.5,5-5.8,7.7-8.4c0.6-0.6,1.2-1.1,1.8-1.6c0.4-0.2,0.7-0.4,1.1-0.7c0,0,0.3-0.1,0.3-0.1c-0.6,0.6-1-1.6-1.3-0.8
				c-0.2,0.4-0.1,1.1-0.1,1.6c0,0.6-0.1,1.3-0.1,1.9c-0.1,1.4-0.3,2.8,0.8,3.9c1.9,2,4.4,0.5,6-1.1c0.5-0.5,1.1-1.1,1.6-1.5
				c0.3-0.3,0.2,0,0.1-0.1c-0.2-0.1,0.3,0.7,0.2,0.3c0.6,1.9,0.9,3.5,0.9,5.5c0,2.2-0.2,4.3-0.2,6.5c-0.1,2.4,0,4.9,0.6,7.2
				c0.6,2.3,2.3,5.8,5.4,4.7c1.3-0.5,2.1-1.7,1.7-3.1c-0.3-1.2-1.8-2.2-3.1-1.7c0,0,0.1,0,0.1,0c0.4,0.1,0.8,0.2,1.3,0.3
				c-0.3-0.2-0.3-0.2-0.2,0c0.2,0.2,0.2,0.1,0-0.2c-0.1-0.3-0.2-0.6-0.3-0.9c-0.2-0.7-0.4-1.4-0.4-2c-0.2-1.5-0.2-3.1-0.1-4.6
				c0.1-3.3,0.4-6.6-0.1-9.9c-0.4-3-1.8-6.8-5.5-7c-1.5-0.1-2.8,0.6-3.9,1.6c-0.5,0.4-1,0.9-1.4,1.4c-0.2,0.2-0.5,0.5-0.7,0.7
				c-0.4,0.5,0.3,0-0.3,0.1c0.4,0,0.9,0,1.3,0c-0.1,0-0.2,0-0.3-0.1c0.4,0.2,0.7,0.4,1.1,0.6c-0.1-0.1-0.1-0.1-0.2-0.2
				c0.2,0.4,0.4,0.7,0.6,1.1c-0.2-0.5,0-1.4,0.1-2c0-0.7,0.1-1.4,0.1-2.1c0.1-1.5,0-3-1.1-4.1c-2.2-2-5.2-0.5-7.2,1
				c-3.8,2.9-6.1,7.2-9.8,10.3c1.4,0.8,2.8,1.6,4.2,2.4c4.1-10.5,7.1-21.4,8.9-32.5c0.2-1,0-2-0.9-2.6c-0.7-0.5-2-0.8-2.8-0.2
				c-18.2,13.5-31.7,32.1-45,50.3c-2,2.8-4.1,5.6-6.1,8.4c-2,2.7-3.8,5.5-4.8,8.7C12.5,96.3,17.3,97.6,18.4,94.6L18.4,94.6z"/>
		</g>
	</g>
	<g class="st1">
		<g>
			<path d="M104.1,67.9c0,0-0.1,0.1-0.1,0.1c-0.2,0.2-0.4,0.5-0.5,0.8c-0.2,0.3-0.2,0.6-0.2,1c0,0.3,0.1,0.7,0.2,1
				c0.1,0.3,0.3,0.6,0.5,0.8c0.2,0.1,0.3,0.3,0.5,0.4c0.4,0.2,0.8,0.3,1.3,0.3c0.2,0,0.4-0.1,0.7-0.1c0.4-0.1,0.8-0.3,1.1-0.6
				c0,0,0.1-0.1,0.1-0.1c0.2-0.2,0.4-0.5,0.5-0.8c0.2-0.3,0.2-0.6,0.2-1c0-0.3-0.1-0.7-0.2-1c-0.1-0.3-0.3-0.6-0.5-0.8
				c-0.2-0.1-0.3-0.3-0.5-0.4c-0.4-0.2-0.8-0.3-1.3-0.3c-0.2,0-0.4,0.1-0.7,0.1C104.8,67.4,104.5,67.6,104.1,67.9L104.1,67.9z"/>
		</g>
	</g>
	<g class="st1">
		<g>
			<path d="M148.9,33.3c-0.6,2.2,0.4,4.4,2.3,5.6c1.8,1.2,4.2,1.1,6.1,0.3c1.8-0.7,3.3-2.2,5.2-2.8c1.8-0.6,2.3,1.1,3.1,2.3
				c2.2,3.3,4.9,7.3,8.8,8.7c1.9,0.7,4,0.6,6,0.9c2.2,0.3,4.3,0.9,6.3,1.8c1.2,0.6,2.7,0.4,3.4-0.9c0.6-1.1,0.3-2.9-0.9-3.4
				c-1.9-0.8-3.8-1.5-5.7-2c-2-0.5-3.9-0.6-5.9-0.8c-3.4-0.4-5.6-3.9-7.4-6.5c-1-1.6-1.9-3.3-3.5-4.4c-1.7-1.1-3.8-1.1-5.6-0.5
				c-1.8,0.6-3.3,1.8-5,2.7c-0.5,0.3-1.3,0.7-2,0.4c-0.2-0.1-0.2-0.3-0.3-0.1C154.5,31.5,149.7,30.2,148.9,33.3L148.9,33.3z"/>
		</g>
	</g>
	<g class="st1">
		<g>
			<path d="M222.4,51.1c0.1,0,0.2,0.1,0.2,0.1c-0.2-0.1-0.4-0.2-0.6-0.3c0.3,0.1,0.6,0.3,0.8,0.5C222.7,51.3,222.5,51.2,222.4,51.1
				C222.4,51.1,222.4,51.1,222.4,51.1c0.3,0.2,0.5,0.4,0.8,0.5c0.3,0.2,0.6,0.2,1,0.2c0.3,0,0.7-0.1,1-0.2c0.3-0.1,0.6-0.3,0.8-0.5
				c0.1-0.2,0.3-0.3,0.4-0.5c0.2-0.4,0.3-0.8,0.3-1.3c0-0.2-0.1-0.4-0.1-0.7c-0.1-0.4-0.3-0.8-0.6-1.1c-0.2-0.2-0.4-0.3-0.6-0.5
				c0,0-0.1-0.1-0.1-0.1c-0.1-0.1-0.2-0.1-0.3-0.2c-0.1-0.1-0.2-0.1-0.3-0.1c-0.2-0.1-0.5-0.2-0.7-0.3c-0.1,0-0.1,0-0.2-0.1
				c-0.3-0.1-0.7-0.1-1,0c-0.3,0-0.6,0.1-0.9,0.3c-0.3,0.2-0.5,0.4-0.7,0.6c-0.2,0.2-0.4,0.5-0.4,0.9c0,0.2-0.1,0.4-0.1,0.7
				c0,0.5,0.1,0.9,0.3,1.3c0.1,0.2,0.3,0.3,0.4,0.5C221.6,50.8,222,51,222.4,51.1L222.4,51.1z"/>
		</g>
	</g>
	<g class="st1">
		<g>
			<path d="M139,70.9c5.1-0.5,10.3-0.5,15.4-0.4c5.3,0.1,10.6,0.2,15.9,0.3c10.6,0.2,21.2,0.5,31.9,0.9c6,0.2,11.9,0.4,17.9,0.7
				c3.2,0.1,3.2-4.9,0-5c-21.2-0.9-42.5-1.5-63.7-1.9c-5.8-0.1-11.6-0.2-17.4,0.4c-1.3,0.1-2.5,1.1-2.5,2.5
				C136.5,69.7,137.7,71,139,70.9L139,70.9z"/>
		</g>
	</g>
</g>
<g id="Layer_3">
	<g>
		<g>
			<path d="M14.5,116.3c5.8-0.2,11.5-0.4,17.3-0.7c2.9-0.1,5.8-0.2,8.7-0.3c2.6-0.1,5.3-0.2,7.9-0.8c1.2-0.3,2.5-0.8,3.6-1.4
				c1-0.5,1.9-1.3,3-1.7c1.1-0.4,2.1,0,3.2,0.4c1.3,0.5,2.6,1,3.9,1.5c5.3,1.7,10.9,2.3,16.4,2.9c11.4,1.2,22.9,1.6,34.3,1
				c5.8-0.3,11.5-0.8,17.3-1.1c5.7-0.3,11.4-0.4,17.1-0.3c13.1,0.1,26.1,0.9,39.2,1.7c3.2,0.2,3.2-4.8,0-5
				c-11.6-0.7-23.1-1.4-34.7-1.7c-11.6-0.2-23.1,0.3-34.6,1.1c-11.4,0.7-22.9,0.7-34.3-0.3c-5.5-0.5-11-1-16.4-2.3
				c-2.6-0.6-5-1.8-7.6-2.6c-2.7-0.8-5.2-0.2-7.6,1.2c-1.2,0.7-2.3,1.3-3.6,1.7c-1.3,0.4-2.7,0.5-4,0.6c-3.1,0.2-6.2,0.3-9.3,0.4
				c-6.5,0.3-13,0.5-19.5,0.8C11.3,111.4,11.3,116.4,14.5,116.3L14.5,116.3z"/>
		</g>
	</g>
	<g>
		<g>
			<path d="M210.7,110.8C210.7,110.8,210.7,110.8,210.7,110.8C210.7,110.8,210.7,110.8,210.7,110.8c0.2,0.2,0.3,0.4,0.4,0.5
				c0,0,0,0,0,0c0.1,0.1,0.3,0.2,0.3,0.2c0,0,0.2,0.1,0.3,0.2c0,0,0,0,0,0c0,0,0,0,0,0c0.2,0.1,0.4,0.2,0.6,0.3c0,0,0,0,0,0
				c0,0,0,0,0.1,0c0.1,0,0.3,0,0.4,0c0,0,0.2,0,0.4,0c0,0,0,0,0.1,0c0,0,0,0,0,0c0.2,0,0.4-0.1,0.7-0.1c0,0,0,0,0,0c0,0,0,0,0.1,0
				c0.1,0,0.3-0.1,0.3-0.1c0.1,0,0.2-0.1,0.3-0.1c0,0,0,0,0,0c0,0,0,0,0,0c0.2-0.1,0.3-0.3,0.5-0.4c0,0,0,0,0,0c0,0,0,0,0,0
				c0.1-0.2,0.3-0.3,0.4-0.5c0,0,0,0,0,0c0,0,0,0,0-0.1c-1.6-0.4-3.1-0.8-4.7-1.3c0,0.2,0,0.4-0.1,0.6c0,0.3,0.1,0.7,0.2,1
				c0.1,0.3,0.3,0.6,0.5,0.8c0.2,0.1,0.3,0.3,0.5,0.4c0.4,0.2,0.8,0.3,1.3,0.3c0,0,0.1,0,0.1,0c0,0,0,0,0.1,0c0.2,0,0.5-0.1,0.7-0.1
				c0.1,0,0.1,0,0.2-0.1c0.2-0.1,0.4-0.2,0.6-0.3c0,0,0,0,0,0c0,0,0.1,0,0.1,0c0,0,0,0,0,0c0.2-0.1,0.4-0.3,0.5-0.4
				c0,0,0.1,0,0.1-0.1c0.2-0.2,0.4-0.5,0.5-0.8c0.2-0.3,0.2-0.6,0.2-1c0-0.3-0.1-0.7-0.2-1c-0.1-0.3-0.3-0.6-0.5-0.8
				c-0.2-0.1-0.3-0.3-0.5-0.4c-0.4-0.2-0.8-0.3-1.3-0.3c-0.2,0-0.4,0.1-0.7,0.1c-0.4,0.1-0.8,0.3-1.1,0.6c0,0-0.1,0.1-0.1,0.1
				c0.2-0.1,0.3-0.3,0.5-0.4c-0.1,0-0.1,0.1-0.2,0.1c0.2-0.1,0.4-0.2,0.6-0.3c-0.1,0-0.1,0-0.2,0.1c0.2,0,0.4-0.1,0.7-0.1
				c-0.1,0-0.1,0-0.2,0c0.8,0.8,1.7,1.7,2.5,2.5c0-0.2,0-0.4,0.1-0.6c0-0.2-0.1-0.4-0.1-0.7c-0.1-0.3-0.2-0.6-0.4-0.9
				c-0.1-0.2-0.3-0.3-0.4-0.4c-0.2-0.2-0.5-0.4-0.9-0.4c-0.2,0-0.4-0.1-0.7-0.1c-0.2,0-0.4,0.1-0.7,0.1c-0.3,0.1-0.6,0.2-0.9,0.4
				c-0.3,0.2-0.5,0.4-0.6,0.7c0,0,0,0,0,0.1c0.1-0.2,0.3-0.3,0.4-0.5c0,0,0,0-0.1,0.1c0.2-0.1,0.3-0.3,0.5-0.4c0,0,0,0-0.1,0
				c0.2-0.1,0.4-0.2,0.6-0.3c0,0-0.1,0-0.1,0c0.2,0,0.4-0.1,0.7-0.1c0,0-0.1,0-0.1,0c0.2,0,0.4,0.1,0.7,0.1c0,0-0.1,0-0.1,0
				c0.2,0.1,0.4,0.2,0.6,0.3c0,0-0.1,0-0.1,0c0.2,0.1,0.3,0.3,0.5,0.4c0,0,0,0-0.1-0.1c0.1,0.2,0.3,0.3,0.4,0.5c0,0,0,0,0,0
				c-0.2-0.3-0.4-0.5-0.6-0.7c-0.2-0.2-0.5-0.4-0.9-0.4c-0.3-0.1-0.7-0.1-1,0c-0.3,0-0.6,0.1-0.9,0.3c-0.2,0.1-0.3,0.3-0.5,0.4
				c-0.3,0.3-0.5,0.7-0.6,1.1c0,0.2-0.1,0.4-0.1,0.7C210.3,110,210.4,110.4,210.7,110.8L210.7,110.8z"/>
		</g>
	</g>
</g>
</svg>
