<?xml version="1.0" encoding="UTF-8"?>
<svg xmlns="http://www.w3.org/2000/svg" version="1.1" viewBox="0 0 64 64">
  <defs>
    <style>
      .cls-1 {
        fill: #fff;
      }

      .cls-2 {
        display: none;
      }
    </style>
  </defs>
  <!-- Generator: Adobe Illustrator 28.7.1, SVG Export Plug-In . SVG Version: 1.2.0 Build 142)  -->
  <g>
    <g id="Layer_1">
      <g id="Layer_2" class="cls-2">
        <rect x="-1.8" y="-2.7" width="69.5" height="70.3"/>
      </g>
      <g>
        <path class="cls-1" d="M42.3,27.3c1.8,2.6,4.8,4.3,8.2,4.2,5.3-.1,9.5-4.4,9.5-9.7,0-5.4-4.3-9.8-9.7-9.8s-6.3,1.7-8,4.2c-.5.7-1.6.7-2.1,0-1.8-2.6-4.7-4.2-8-4.2s-6.3,1.7-8.1,4.3c-.5.8-1.6.8-2.2,0-1.7-2.6-4.7-4.3-8.1-4.3-5.4,0-9.8,4.4-9.7,9.8,0,5.3,4.3,9.6,9.6,9.7,3.4,0,6.5-1.7,8.2-4.3.5-.8,1.6-.8,2.2,0,1.7,2.6,4.7,4.3,8.1,4.3s6.3-1.7,8-4.2c.5-.8,1.6-.7,2.1,0Z"/>
        <path class="cls-1" d="M13.6,32.6c-5.4,0-9.7,4.3-9.7,9.7s4.3,9.7,9.7,9.7,9.7-4.3,9.7-9.7-4.3-9.7-9.7-9.7Z"/>
        <circle class="cls-1" cx="50.4" cy="42.3" r="9.7"/>
      </g>
    </g>
  </g>
</svg>