<?xml version="1.0" encoding="utf-8"?>
<!-- Generator: Adobe Illustrator 26.5.0, SVG Export Plug-In . SVG Version: 6.00 Build 0)  -->
<svg version="1.1" id="Logo" xmlns="http://www.w3.org/2000/svg" xmlns:xlink="http://www.w3.org/1999/xlink" x="0px" y="0px"
	 viewBox="0 0 32 32" style="enable-background:new 0 0 32 32;" xml:space="preserve">
<style type="text/css">
	.st0{display:none;}
	.st1{display:inline;}
	.st2{display:none;enable-background:new    ;}
	.st3{font-family:'Orbitron-Bold';}
	.st4{font-size:20px;}
</style>
<path class="st0" d="M7.8,23.2V8.8h2.9L16,15l5.2-6.2h2.9v14.4h-2.7V12.6L16,19.1l-5.5-6.5v10.5H7.8V23.2z"/>
<g class="st0">
	<path class="st1" d="M16.1,4.2c6.5,0,11.8,5.3,11.8,11.8s-5.3,11.8-11.8,11.8S4.3,22.5,4.3,16S9.5,4.2,16.1,4.2 M16.1,1.2
		C7.9,1.2,1.3,7.8,1.3,16s6.6,14.8,14.8,14.8S30.9,24.2,30.9,16S24.2,1.2,16.1,1.2L16.1,1.2z"/>
</g>
<text transform="matrix(1 0 0 1 6.7198 23.1697)" class="st2 st3 st4">M</text>
<rect y="9.8" width="3.8" height="17.3"/>
<rect x="10.3" y="5.8" transform="matrix(0.7071 -0.7071 0.7071 0.7071 1.7538 19.6656)" width="28.6" height="3.8"/>
<rect x="-7.6" y="5.5" transform="matrix(0.7071 0.7071 -0.7071 0.7071 7.1906 -2.5807)" width="28.6" height="3.8"/>
<polygon points="47.3,-9 38.7,-17.7 35.9,-14.9 47.3,-3.5 58.7,-14.9 56,-17.6 "/>
<polygon points="15.9,-13.2 7.2,-21.9 4.4,-19.2 15.8,-7.8 27.2,-19.2 24.5,-21.9 "/>
<rect x="28.5" y="9.8" width="3.6" height="17.3"/>
</svg>
