<?xml version="1.0" encoding="UTF-8"?>
<svg xmlns="http://www.w3.org/2000/svg" version="1.1" viewBox="0 0 64 64">
  <!-- Generator: Adobe Illustrator 29.0.1, SVG Export Plug-In . SVG Version: 2.1.0 Build 192)  -->
  <defs>
    <style>
      .st0 {
        stroke-width: 3px;
      }

      .st0, .st1, .st2 {
        fill: #fff;
      }

      .st0, .st1, .st2, .st3 {
        stroke: #fff;
        stroke-miterlimit: 10;
      }

      .st1, .st3 {
        stroke-width: 2px;
      }

      .st4 {
        display: none;
      }

      .st3 {
        fill: none;
      }
    </style>
  </defs>
  <g id="logo">
    <path id="logo_x5F_outlines" class="st0" d="M37,23.9v6.7l-9.7-7.4c-.6-.5-1.5,0-1.5.7v6.7l-9.7-7.4c-.6-.5-1.5,0-1.5.7v25.4s9.5,7.3,9.5,7.3c1.2.9,2.8,0,2.8-1.4v-5l8.3,6.4c1.2.9,2.8,0,2.8-1.4v-5l8.3,6.4c1.2.9,2.8,0,2.8-1.4v-23.6s-10.9-8.4-10.9-8.4c-.6-.5-1.5,0-1.5.7ZM24.5,55.3l-8.7-6.6v-21.1c0-1.2,1.4-1.9,2.4-1.2l7.5,5.8v22.5c0,.7-.8,1-1.3.6ZM35.7,55.3l-8.7-6.6v-21.1c0-1.2,1.4-1.9,2.4-1.2l7.5,5.8v22.5c0,.7-.8,1-1.3.6ZM46.8,55.3l-8.6-6.6v-21.1c0-1.2,1.4-1.9,2.4-1.2l7.5,5.8v22.5c0,.7-.8,1-1.3.6Z"/>
  </g>
  <g id="Layer_2" class="st4">
    <line class="st1" x1="7.3" y1="39.4" x2="54.4" y2="39.4"/>
    <path class="st2" d="M54.4,41.5v-4.2c0-.4.5-.7.9-.5l3.5,2.2c.4.2.4.8,0,1l-3.5,2c-.4.2-.8,0-.8-.5Z"/>
    <line class="st3" x1="8" y1="39.5" x2="6.3" y2="41.1"/>
    <line class="st3" x1="9.6" y1="39.5" x2="7.8" y2="41.1"/>
    <line class="st3" x1="11.1" y1="39.5" x2="9.4" y2="41.1"/>
    <line class="st3" x1="8" y1="39.1" x2="6.3" y2="37.5"/>
    <line class="st3" x1="9.6" y1="39.1" x2="7.8" y2="37.5"/>
    <line class="st3" x1="11.1" y1="39.1" x2="9.4" y2="37.5"/>
  </g>
</svg>