<?xml version="1.0" encoding="utf-8"?>
<!-- Generator: Adobe Illustrator 25.1.0, SVG Export Plug-In . SVG Version: 6.00 Build 0)  -->
<svg version="1.1" id="Layer_1" xmlns="http://www.w3.org/2000/svg" xmlns:xlink="http://www.w3.org/1999/xlink" x="0px" y="0px"
	 viewBox="0 0 32 32" style="enable-background:new 0 0 32 32;" xml:space="preserve">
<style type="text/css">
	.st0{fill-rule:evenodd;clip-rule:evenodd;}
</style>
<path class="st0" d="M27.3,1.1c2,0,3.6,1.6,3.6,3.6v22.6c0,2-1.6,3.6-3.6,3.6H4.8c-2,0-3.6-1.6-3.6-3.6V4.7c0-2,1.6-3.6,3.6-3.6
	L27.3,1.1L27.3,1.1z M25.8,12.3c-0.1,2-1.5,4.7-4.2,8.2c-2.8,3.6-5.1,5.4-7,5.4c-1.2,0-2.2-1.1-3-3.3c-0.5-2-1.1-4-1.6-6
	c-0.6-2.2-1.3-3.3-2-3.3c-0.2,0-0.7,0.3-1.6,1l-1-1.2c1-0.9,2-1.8,3-2.7c1.3-1.2,2.4-1.8,3-1.8c1.6-0.2,2.6,0.9,2.9,3.3
	c0.4,2.5,0.7,4.1,0.8,4.7c0.5,2.1,1,3.1,1.5,3.1c0.4,0,1.1-0.7,1.9-2c0.9-1.3,1.3-2.4,1.4-3.1c0.1-1.2-0.3-1.7-1.4-1.7
	c-0.5,0-1,0.1-1.5,0.3c1-3.3,2.9-4.9,5.7-4.8C24.9,8.3,25.9,9.7,25.8,12.3L25.8,12.3z"/>
</svg>
